<svg width="317" height="122" viewBox="0 0 317 122" fill="none" xmlns="http://www.w3.org/2000/svg">
<path d="M24.3433 10.7915H40.332V21.6812H37.3359C32.1312 21.6812 28.5781 20.8649 26.6768 19.2324C25.1211 17.888 24.3433 15.7178 24.3433 12.7217V10.7915ZM3.86035 10.7915H19.3594V26.5786H30.9116V34.0977H19.3594V49.9424H3.86035V10.7915ZM24.3145 47.2056C24.3145 43.23 26.6191 40.5316 31.2285 39.1104C32.9954 38.5726 35.2713 38.3037 38.0562 38.3037H40.332V50H24.3145V47.2056ZM69.9749 23.0063C69.9749 18.7043 71.0696 15.6025 73.2591 13.7012C75.5062 11.7614 79.1072 10.7915 84.0623 10.7915H85.8196V31.5049C85.8196 40.4355 83.2653 46.1589 78.1566 48.6748C76.3704 49.5583 74.229 50 71.7322 50H69.9749V23.0063ZM63.1761 50C58.3555 50 54.764 48.3195 52.4017 44.9585C50.2122 41.8472 49.1175 37.3626 49.1175 31.5049V10.7915H50.8748C55.8299 10.7915 59.431 11.7614 61.678 13.7012C63.8675 15.6025 64.9622 18.7043 64.9622 23.0063V50H63.1761ZM115.088 10.7915H131.077V21.6812H128.081C122.876 21.6812 119.323 20.8649 117.422 19.2324C115.866 17.888 115.088 15.7178 115.088 12.7217V10.7915ZM94.6051 10.7915H110.104V26.5786H121.656V34.0977H110.104V49.9424H94.6051V10.7915ZM115.059 47.2056C115.059 43.23 117.364 40.5316 121.973 39.1104C123.74 38.5726 126.016 38.3037 128.801 38.3037H131.077V50H115.059V47.2056ZM160.691 10.7915H163.284C170.351 10.7915 174.567 13.1826 175.931 17.9648C176.392 19.5397 176.622 21.3451 176.622 23.3809V50H160.691V10.7915ZM139.776 10.7915H155.275V50H139.776V10.7915ZM219.402 10.7915H232.308V27.0684H229.081C226.969 27.0684 225.413 26.8475 224.414 26.4058C223.416 25.9448 222.628 25.4359 222.052 24.8789C221.495 24.3027 221.015 23.5537 220.612 22.6318C219.805 20.7497 219.402 18.1377 219.402 14.7959V10.7915ZM200.762 10.7915H216.262V50H200.762V10.7915ZM184.63 10.7915H197.536V14.7959C197.536 19.7318 196.643 23.0928 194.857 24.8789C193.397 26.3385 191.064 27.0684 187.856 27.0684H184.63V10.7915ZM35.5498 93.1509C39.2181 94.6681 41.0522 97.3857 41.0522 101.304C41.0522 104.895 39.7943 107.718 37.2783 109.773C34.6471 111.924 30.9116 113 26.0718 113H23.4214V73.7915H25.6396C30.3643 73.7915 33.9749 74.9727 36.4717 77.335C38.7572 79.486 39.8999 82.2804 39.8999 85.7183C39.8999 89.1369 38.4787 91.6144 35.6362 93.1509H35.5498ZM3.14014 73.7915H18.6392V112.942H3.14014V73.7915ZM70.119 73.7915H72.7117C79.7794 73.7915 83.9951 76.1826 85.3587 80.9648C85.8196 82.5397 86.0501 84.3451 86.0501 86.3809V113H70.119V73.7915ZM48.8582 86.3809C48.8582 82.1364 49.8281 79.0251 51.7679 77.0469C53.8997 74.8766 57.376 73.7915 62.1966 73.7915H64.7894V113H48.8582V86.3809ZM130.875 85.9775C130.875 91.7777 128.34 95.59 123.27 97.4146C126.112 98.4709 128.254 100.19 129.694 102.571C130.942 104.684 131.567 107.142 131.567 109.946V113H114.397V73.7339H115.895C120.965 73.7339 124.7 74.6942 127.101 76.6147C129.617 78.6313 130.875 81.7523 130.875 85.9775ZM94.1154 73.7915H109.614V113H94.1154V73.7915ZM160.633 73.7915H176.536V93.9575H174.49C169.535 93.9575 165.982 93.1029 163.831 91.3936C161.699 89.6842 160.633 86.7746 160.633 82.6646V73.7915ZM154.872 113C151.76 113 148.995 111.848 146.575 109.543C144.443 107.507 142.772 104.799 141.562 101.419C140.448 98.3076 139.891 95.2251 139.891 92.1714C139.891 87.5812 141.024 83.5 143.29 79.9277C144.904 77.3926 147.026 75.6064 149.657 74.5693C151.002 74.0508 152.5 73.7915 154.151 73.7915H156.37V113H154.872ZM160.633 105.481H175.038V106.288C175.038 108.074 174.394 109.581 173.107 110.811C171.533 112.27 169.295 113 166.395 113H160.633V105.481ZM205.919 73.7915H208.166C215.292 73.7915 219.997 76.9701 222.283 83.3271C223.204 85.9391 223.665 88.9448 223.665 92.3442C223.665 98.0675 222.561 102.783 220.352 106.489C217.74 110.83 213.678 113 208.166 113H205.919V73.7915ZM198.976 113C191.889 113 187.194 109.409 184.889 102.226C183.948 99.3063 183.477 96.0125 183.477 92.3442C183.477 84.8732 185.552 79.6012 189.7 76.5283C192.139 74.7038 195.231 73.7915 198.976 73.7915H201.223V113H198.976ZM250.254 73.7915H252.674C260.818 73.7915 265.657 77.3734 267.194 84.5371C267.674 86.7074 267.914 89.2425 267.914 92.1426C267.914 95.0426 267.607 97.8083 266.992 100.439C266.397 103.071 265.475 105.318 264.227 107.181C261.634 111.06 257.783 113 252.674 113H250.254V73.7915ZM229.973 73.7915H245.472V112.942H229.973V73.7915ZM296.578 73.7915H312.566V84.6812H309.57C304.365 84.6812 300.812 83.8649 298.911 82.2324C297.355 80.888 296.578 78.7178 296.578 75.7217V73.7915ZM276.095 73.7915H291.594V89.5786H303.146V97.0977H291.594V112.942H276.095V73.7915ZM296.549 110.206C296.549 106.23 298.853 103.532 303.463 102.11C305.23 101.573 307.506 101.304 310.29 101.304H312.566V113H296.549V110.206Z" fill="white"/>
</svg>
