<svg width="310" height="103" viewBox="0 0 310 103" fill="none" xmlns="http://www.w3.org/2000/svg">
<path d="M44.707 0.762695H47.2998C54.3675 0.762695 58.5928 3.16341 59.9756 7.96484C60.4173 9.52051 60.6382 11.3162 60.6382 13.3521V40H44.707V0.762695ZM23.3311 0.762695H39.3486V40H23.3311V0.762695ZM1.89746 0.762695H17.915V40H1.89746V0.762695ZM91.1741 0.791504H93.4212C100.547 0.791504 105.252 3.97005 107.537 10.3271C108.459 12.9391 108.92 15.9448 108.92 19.3442C108.92 25.0675 107.816 29.7826 105.607 33.4893C102.995 37.8298 98.9333 40 93.4212 40H91.1741V0.791504ZM84.2313 40C77.1444 40 72.4486 36.4085 70.1439 29.2256C69.2028 26.3063 68.7322 23.0125 68.7322 19.3442C68.7322 11.8732 70.8065 6.60124 74.9549 3.52832C77.394 1.70378 80.4862 0.791504 84.2313 0.791504H86.4783V40H84.2313ZM136.547 0.791504H138.794C145.919 0.791504 150.624 3.97005 152.91 10.3271C153.832 12.9391 154.293 15.9448 154.293 19.3442C154.293 25.0675 153.188 29.7826 150.98 33.4893C148.368 37.8298 144.306 40 138.794 40H136.547V0.791504ZM129.604 40C122.517 40 117.821 36.4085 115.516 29.2256C114.575 26.3063 114.105 23.0125 114.105 19.3442C114.105 11.8732 116.179 6.60124 120.327 3.52832C122.766 1.70378 125.859 0.791504 129.604 0.791504H131.851V40H129.604ZM180.882 0.791504H183.302C191.445 0.791504 196.285 4.37337 197.821 11.5371C198.301 13.7074 198.541 16.2425 198.541 19.1426C198.541 22.0426 198.234 24.8083 197.62 27.4395C197.024 30.0706 196.102 32.3177 194.854 34.1807C192.261 38.0602 188.41 40 183.302 40H180.882V0.791504ZM160.601 0.791504H176.1V39.9424H160.601V0.791504ZM32.5498 83.1509C36.2181 84.6681 38.0522 87.3857 38.0522 91.3037C38.0522 94.8952 36.7943 97.7184 34.2783 99.7734C31.6471 101.924 27.9116 103 23.0718 103H20.4214V63.7915H22.6396C27.3643 63.7915 30.9749 64.9727 33.4717 67.335C35.7572 69.486 36.8999 72.2804 36.8999 75.7183C36.8999 79.1369 35.4787 81.6144 32.6362 83.1509H32.5498ZM0.140137 63.7915H15.6392V102.942H0.140137V63.7915ZM67.119 63.7915H69.7117C76.7794 63.7915 80.9951 66.1826 82.3587 70.9648C82.8196 72.5397 83.0501 74.3451 83.0501 76.3809V103H67.119V63.7915ZM45.8582 76.3809C45.8582 72.1364 46.8281 69.0251 48.7679 67.0469C50.8997 64.8766 54.376 63.7915 59.1966 63.7915H61.7894V103H45.8582V76.3809ZM127.875 75.9775C127.875 81.7777 125.34 85.59 120.27 87.4146C123.112 88.4709 125.254 90.1898 126.694 92.5713C127.942 94.6839 128.567 97.1423 128.567 99.9463V103H111.397V63.7339H112.895C117.965 63.7339 121.7 64.6942 124.101 66.6147C126.617 68.6313 127.875 71.7523 127.875 75.9775ZM91.1154 63.7915H106.614V103H91.1154V63.7915ZM157.633 63.7915H173.536V83.9575H171.49C166.535 83.9575 162.982 83.1029 160.831 81.3936C158.699 79.6842 157.633 76.7746 157.633 72.6646V63.7915ZM151.872 103C148.76 103 145.995 101.848 143.575 99.543C141.443 97.5072 139.772 94.7992 138.562 91.4189C137.448 88.3076 136.891 85.2251 136.891 82.1714C136.891 77.5812 138.024 73.5 140.29 69.9277C141.904 67.3926 144.026 65.6064 146.657 64.5693C148.002 64.0508 149.5 63.7915 151.151 63.7915H153.37V103H151.872ZM157.633 95.481H172.038V96.2876C172.038 98.0737 171.394 99.5814 170.107 100.811C168.533 102.27 166.295 103 163.395 103H157.633V95.481ZM202.919 63.7915H205.166C212.292 63.7915 216.997 66.9701 219.283 73.3271C220.204 75.9391 220.665 78.9448 220.665 82.3442C220.665 88.0675 219.561 92.7826 217.352 96.4893C214.74 100.83 210.678 103 205.166 103H202.919V63.7915ZM195.976 103C188.889 103 184.194 99.4085 181.889 92.2256C180.948 89.3063 180.477 86.0125 180.477 82.3442C180.477 74.8732 182.552 69.6012 186.7 66.5283C189.139 64.7038 192.231 63.7915 195.976 63.7915H198.223V103H195.976ZM247.254 63.7915H249.674C257.818 63.7915 262.657 67.3734 264.194 74.5371C264.674 76.7074 264.914 79.2425 264.914 82.1426C264.914 85.0426 264.607 87.8083 263.992 90.4395C263.397 93.0706 262.475 95.3177 261.227 97.1807C258.634 101.06 254.783 103 249.674 103H247.254V63.7915ZM226.973 63.7915H242.472V102.942H226.973V63.7915ZM293.578 63.7915H309.566V74.6812H306.57C301.365 74.6812 297.812 73.8649 295.911 72.2324C294.355 70.888 293.578 68.7178 293.578 65.7217V63.7915ZM273.095 63.7915H288.594V79.5786H300.146V87.0977H288.594V102.942H273.095V63.7915ZM293.549 100.206C293.549 96.23 295.853 93.5316 300.463 92.1104C302.23 91.5726 304.506 91.3037 307.29 91.3037H309.566V103H293.549V100.206Z" fill="white"/>
</svg>
