<svg width="54" height="13" viewBox="0 0 54 13" fill="none" xmlns="http://www.w3.org/2000/svg">
<path d="M8.80413 0.24V2.016H2.91613V5.152H7.95613V6.928H2.91613V10.416H8.80413V12.208H0.852125V0.24H8.80413ZM21.1834 0.24L17.1194 12.208H14.6554L10.2874 0.24H12.4794L15.8554 9.472L18.9914 0.24H21.1834ZM30.7573 0.24V2.016H24.8693V5.152H29.9093V6.928H24.8693V10.416H30.7573V12.208H22.8053V0.24H30.7573ZM42.8053 0.24V12.208H40.5013L35.0133 3.712V12.208H32.9493V0.24H35.2373L40.7253 8.72V0.24H42.8053ZM53.1286 0.24V2.016H49.8806V12.208H47.8006V2.016H44.5206V0.24H53.1286Z" fill="white"/>
</svg>
