<svg width="321" height="55" viewBox="0 0 321 55" fill="none" xmlns="http://www.w3.org/2000/svg">
<g filter="url(#filter0_d_366_7572)">
<path d="M18.388 36.616L9.568 21.538V43.546H4.15V12.13H10.156L20.656 29.728L31.114 12.13H37.162V43.546H31.744V21.538L22.882 36.616H18.388ZM57.4037 39.136C63.7037 39.136 67.7777 34.684 67.7777 27.838C67.7777 20.95 63.7037 16.498 57.4037 16.498C51.1457 16.498 47.0717 20.95 47.0717 27.838C47.0717 34.684 51.1457 39.136 57.4037 39.136ZM41.6537 27.838C41.6537 18.43 48.1637 11.794 57.4037 11.794C66.6857 11.794 73.1957 18.43 73.1957 27.838C73.1957 37.246 66.6857 43.882 57.4037 43.882C48.1637 43.882 41.6537 37.246 41.6537 27.838ZM91.9192 39.136C98.2192 39.136 102.293 34.684 102.293 27.838C102.293 20.95 98.2192 16.498 91.9192 16.498C85.6612 16.498 81.5872 20.95 81.5872 27.838C81.5872 34.684 85.6612 39.136 91.9192 39.136ZM76.1692 27.838C76.1692 18.43 82.6792 11.794 91.9192 11.794C101.201 11.794 107.711 18.43 107.711 27.838C107.711 37.246 101.201 43.882 91.9192 43.882C82.6792 43.882 76.1692 37.246 76.1692 27.838ZM126.057 43.882C116.943 43.882 110.559 37.246 110.559 27.838C110.559 18.388 116.943 11.752 126.057 11.794C130.341 11.794 134.205 13.6 136.977 16.456L133.491 20.152C131.811 17.968 128.997 16.498 126.015 16.498C119.925 16.498 115.977 20.95 115.977 27.838C115.977 34.684 119.925 39.136 126.015 39.136C129.333 39.136 131.769 37.498 133.239 35.65L136.977 39.178C134.205 42.034 130.719 43.924 126.057 43.882ZM155.536 39.136C161.836 39.136 165.91 34.684 165.91 27.838C165.91 20.95 161.836 16.498 155.536 16.498C149.278 16.498 145.204 20.95 145.204 27.838C145.204 34.684 149.278 39.136 155.536 39.136ZM139.786 27.838C139.786 18.43 146.296 11.794 155.536 11.794C164.818 11.794 171.328 18.43 171.328 27.838C171.328 37.246 164.818 43.882 155.536 43.882C146.296 43.882 139.786 37.246 139.786 27.838Z" fill="white"/>
</g>
<defs>
<filter id="filter0_d_366_7572" x="-3" y="0" width="328" height="63" filterUnits="userSpaceOnUse" color-interpolation-filters="sRGB">
<feFlood flood-opacity="0" result="BackgroundImageFix"/>
<feColorMatrix in="SourceAlpha" type="matrix" values="0 0 0 0 0 0 0 0 0 0 0 0 0 0 0 0 0 0 127 0" result="hardAlpha"/>
<feOffset dy="4"/>
<feGaussianBlur stdDeviation="2"/>
<feComposite in2="hardAlpha" operator="out"/>
<feColorMatrix type="matrix" values="0 0 0 0 0 0 0 0 0 0 0 0 0 0 0 0 0 0 0.25 0"/>
<feBlend mode="normal" in2="BackgroundImageFix" result="effect1_dropShadow_366_7572"/>
<feBlend mode="normal" in="SourceGraphic" in2="effect1_dropShadow_366_7572" result="shape"/>
</filter>
</defs>
</svg>
