<svg width="244" height="40" viewBox="0 0 244 40" fill="none" xmlns="http://www.w3.org/2000/svg">
<path d="M0 0H16.3288V39.994H0V0ZM21.8499 0H38.1786V39.994H21.8499V0ZM43.6396 0H46.2798C53.4849 0 57.7912 2.44775 59.1985 7.34326C59.6496 8.93099 59.8721 10.7593 59.8721 12.8342V40H43.6335V0H43.6396Z" fill="white"/>
<path d="M82.7261 39.994C75.503 39.994 70.7156 36.3314 68.364 29.0122C67.4018 26.0352 66.9266 22.6793 66.9266 18.9385C66.9266 11.3246 69.0437 5.94798 73.2717 2.81462C75.7556 0.962266 78.9071 0.0300751 82.7261 0.0300751H85.0176V40H82.7261V39.994ZM89.7989 0.0300751H92.0904C99.3556 0.0300751 104.149 3.27169 106.483 9.74891C107.421 12.4132 107.89 15.4744 107.89 18.9385C107.89 24.7722 106.765 29.5775 104.51 33.3544C101.846 37.7808 97.7077 39.994 92.0904 39.994H89.7989V0.0300751Z" fill="white"/>
<path d="M174.113 39.994C170.944 39.994 168.123 38.8212 165.657 36.4697C163.486 34.3948 161.778 31.6343 160.545 28.1882C159.408 25.0188 158.843 21.8734 158.843 18.7641C158.843 14.0851 159.998 9.92332 162.307 6.28477C163.949 3.6987 166.114 1.88243 168.796 0.823941C170.168 0.294697 171.695 0.0300751 173.379 0.0300751H175.641V40H174.113V39.994ZM179.989 0.0300751H196.197V20.5864H194.11C189.058 20.5864 185.438 19.7143 183.243 17.9702C181.072 16.2261 179.983 13.2612 179.983 9.07533V0.0300751H179.989ZM179.989 32.332H194.67V33.1559C194.67 34.9782 194.014 36.5118 192.703 37.7688C191.097 39.2543 188.818 40 185.859 40H179.983V32.338L179.989 32.332Z" fill="white"/>
<path d="M217.867 39.994C210.644 39.994 205.857 36.3314 203.505 29.0122C202.543 26.0352 202.068 22.6793 202.068 18.9385C202.068 11.3246 204.185 5.94798 208.413 2.81462C210.896 0.956254 214.054 0.0240631 217.867 0.0240631H220.158V39.994H217.867ZM224.946 0.0300772H227.237C234.502 0.0300772 239.296 3.27169 241.629 9.74892C242.568 12.4132 243.037 15.4744 243.037 18.9385C243.037 24.7722 241.912 29.5775 239.657 33.3544C236.992 37.7808 232.855 39.994 227.237 39.994H224.946V0.0300772Z" fill="white"/>
<path d="M137.143 0.0300751H134.852V40H137.143C137.282 40 137.414 39.994 137.546 39.988V0.0421033C137.408 0.0421033 137.282 0.0300751 137.143 0.0300751Z" fill="white"/>
<path d="M118.319 2.82063C114.091 5.954 111.974 11.3246 111.974 18.9445C111.974 22.6853 112.455 26.0412 113.411 29.0182C115.763 36.3374 120.55 40 127.773 40H130.065V0.0300751H127.773C123.954 0.0300751 120.803 0.962266 118.319 2.82063Z" fill="white"/>
<path d="M138.749 0.0902405V39.9218C139.585 39.8557 140.391 39.7354 141.155 39.555V0.415004C140.391 0.258636 139.585 0.150382 138.749 0.0902405Z" fill="white"/>
<path d="M151.529 9.74892C150.236 6.15247 148.179 3.55436 145.365 1.95461V37.7988C147.031 36.7163 148.432 35.2428 149.563 33.3604C151.812 29.5835 152.943 24.7782 152.943 18.9445C152.943 15.4804 152.474 12.4132 151.535 9.75494L151.529 9.74892Z" fill="white"/>
</svg>
